<svg id="Layer_1" enable-background="new 0 0 510 510" height="512" viewBox="0 0 510 510" width="512" xmlns="http://www.w3.org/2000/svg"><g><path d="m300 44.858h-46.898c-16.002-59.64-100.225-59.6-116.204 0h-46.898v30h-90v435h390v-435h-90zm-180 30h45v-15c1.653-39.809 58.362-39.778 60 0v15h45v30h-150zm240 30v375h-330v-375h60v30h210v-30z"/><path d="m105 212.645-19.394-19.394-21.212 21.213 40.606 40.606 55.606-55.606-21.212-21.213z"/><path d="m105 302.645-19.394-19.394-21.212 21.213 40.606 40.606 55.606-55.606-21.212-21.213z"/><path d="m105 392.645-19.394-19.394-21.212 21.213 40.606 40.606 55.606-55.606-21.212-21.213z"/><path d="m255 209.858h75v30h-75z"/><path d="m195 209.858h30v30h-30z"/><path d="m255 389.858h75v30h-75z"/><path d="m195 389.858h30v30h-30z"/><path d="m195 299.858h30v30h-30z"/><path d="m255 299.858h75v30h-75z"/><path d="m465 101.317-45 90v318.541h90v-318.541zm0 67.082 13.229 26.459h-26.459zm15 56.459v195h-30v-195zm-30 255v-30h30v30z"/></g></svg>