<svg id="Capa_1" enable-background="new 0 0 510 510" height="512" viewBox="0 0 510 510" width="512" xmlns="http://www.w3.org/2000/svg"><g><path d="m465 0h-420c-24.813 0-45 20.187-45 45v420c0 24.813 20.187 45 45 45h420c24.813 0 45-20.187 45-45v-420c0-24.813-20.187-45-45-45zm15 465c0 8.271-6.729 15-15 15h-420c-8.271 0-15-6.729-15-15v-420c0-8.271 6.729-15 15-15h420c8.271 0 15 6.729 15 15z"/><path d="m282.41 128h-35.41c-8.3 0-15.026 6.748-15 15.048.093 29.235.088 50.754.247 72.043.049 8.07 6.54 14.909 15.093 14.909.253-.002 25.399-.158 35.069-.158 28.447 0 51.59-22.843 51.59-50.921s-23.143-50.921-51.589-50.921zm0 71.842c-4.679 0-12.912.036-20.246.074-.107-21.419-.046-15.421-.119-41.916h20.365c11.703 0 21.59 9.581 21.59 20.921s-9.887 20.921-21.59 20.921z"/><path d="m361.734 97.247c-22.018-21.439-50.939-33.247-81.434-33.247h-97.668c-8.284 0-15 6.716-15 15 0 367.14.368 351.43.368 352 0 8.284 6.716 15 15 15h64c8.277 0 14.99-6.705 15-14.982l.163-139.001c6.993-.022 13.259-.036 18.137-.036 30.495 0 59.416-11.808 81.435-33.247 46.016-44.808 46.032-116.664-.001-161.487zm-81.434 164.733c-8.194 0-20.286.039-33.179.09-8.254.032-14.931 6.729-14.941 14.982l-.162 138.948h-34.386l-.002-322h82.67c46.579 0 85.93 38.463 85.93 83.99s-39.351 83.99-85.93 83.99z"/></g></svg>