<?xml version="1.0" encoding="iso-8859-1"?>
<!-- Generator: Adobe Illustrator 19.0.0, SVG Export Plug-In . SVG Version: 6.00 Build 0)  -->
<svg version="1.1" id="Capa_1" xmlns="http://www.w3.org/2000/svg" xmlns:xlink="http://www.w3.org/1999/xlink" x="0px" y="0px"
	 viewBox="0 0 512 512" style="enable-background:new 0 0 512 512;" xml:space="preserve">
<g>
	<g>
		<path d="M286,91H151v330h90V301h45c57.897,0,105-47.103,105-105C391,138.103,343.897,91,286,91z M286,271h-75v120h-30V121h105
			c41.355,0,75,33.645,75,75S327.355,271,286,271z"/>
	</g>
</g>
<g>
	<g>
		<path d="M286,151h-75v90h75c24.813,0,45-20.187,45-45S310.813,151,286,151z M286,211h-45v-30h45c8.271,0,15,6.729,15,15
			S294.271,211,286,211z"/>
	</g>
</g>
<g>
	<g>
		<path d="M256,0C115.041,0,0,115.049,0,256c0,140.959,115.05,256,256,256c140.959,0,256-115.05,256-256C512,115.041,396.95,0,256,0
			z M256,482C131.383,482,30,380.617,30,256S131.383,30,256,30s226,101.383,226,226S380.617,482,256,482z"/>
	</g>
</g>
<g>
</g>
<g>
</g>
<g>
</g>
<g>
</g>
<g>
</g>
<g>
</g>
<g>
</g>
<g>
</g>
<g>
</g>
<g>
</g>
<g>
</g>
<g>
</g>
<g>
</g>
<g>
</g>
<g>
</g>
</svg>
